<svg xmlns="http://www.w3.org/2000/svg" viewBox="0 0 64 64" role="img" aria-labelledby="lsTitle">
  <title id="lsTitle">Lightspeed</title>
  <path fill="#F0545E" d="M31.8 4.8 13.3 34.2l18.1 24.3a7.1 7.1 0 0 0 11.5-.7l7.8-12.5a5.6 5.6 0 0 0-2.2-8l-4.3-2.2-6.4 10.3a2 2 0 0 1-3.3.2L23.6 34l16.1-25.5a2 2 0 1 0-3.4-2.1l-15 23.8L29 40.4a2 2 0 0 0 3.4 0l12.8-20.5a2 2 0 1 0-3.4-2.1L30.7 35.5l-5.2-7L35.2 13a2 2 0 1 0-3.4-2.1L21.4 27.4a4 4 0 0 0 .1 4.5l8.7 12a6 6 0 0 0 10.1-.3l4.4-7.1 2.1 1.1a1.5 1.5 0 0 1 .6 2.1l-7.8 12.5a4.1 4.1 0 0 1-6.6.4L17.2 34.1 35.2 5.5a2 2 0 0 0-3.4-2.2Z"/>
</svg>
