<svg xmlns="http://www.w3.org/2000/svg" viewBox="0 0 64 64" role="img" aria-labelledby="shopifyTitle">
  <title id="shopifyTitle">Shopify</title>
  <path d="M10 18L36 10L36 56L8 50L10 18Z" fill="#95BF47"/>
  <path d="M36 10L51 14L56 48L36 56V10Z" fill="#5E8E3E"/>
  <path d="M18 18C18 10.5 23.5 6 30 6C36.5 6 41 10.5 41 18H37.5C37.5 12.4 34.1 9.5 30 9.5C25.9 9.5 21.5 12.4 21.5 18H18Z" fill="#95BF47"/>
  <path d="M26.3 45.4C23.4 45.4 21.1 44.6 19.4 43.1L20.9 39.4C22.4 40.7 24.3 41.4 26.4 41.4C28.7 41.4 29.8 40.4 29.8 38.9C29.8 37.5 28.8 36.6 26.6 35.3L24.7 34.2C21.8 32.5 20.2 30.2 20.2 27.2C20.2 23.1 23.2 20 28 20C30.6 20 32.7 20.7 34.3 22.1L32.7 25.8C31.4 24.7 29.8 24.1 28.1 24.1C26.1 24.1 24.9 25.2 24.9 26.7C24.9 28 25.7 28.9 27.9 30.2L29.8 31.3C33.1 33.2 34.5 35.5 34.5 38.3C34.5 42.6 31.4 45.4 26.3 45.4Z" fill="#FFFFFF"/>
</svg>
