<svg xmlns="http://www.w3.org/2000/svg" viewBox="0 0 1920 1080" preserveAspectRatio="xMidYMid slice">
  <defs>
    <linearGradient id="base" x1="0%" y1="0%" x2="100%" y2="100%">
      <stop offset="0%" stop-color="#3f3444" />
      <stop offset="45%" stop-color="#2d1f43" />
      <stop offset="100%" stop-color="#2f004a" />
    </linearGradient>
  </defs>

  <rect width="1920" height="1080" fill="url(#base)" />

  <path
    d="M0 128 C320 170 520 258 760 308 C1040 366 1390 290 1920 84 L1920 0 L0 0 Z"
    fill="#a86f2e"
    fill-opacity="0.36"
  />

  <path
    d="M0 630 C280 532 540 566 778 836 C910 986 1020 1080 1126 1080 L0 1080 Z"
    fill="#044961"
    fill-opacity="0.95"
  />

  <path
    d="M548 518 C892 452 1186 566 1424 794 C1558 920 1740 944 1920 862 L1920 1080 L764 1080 C654 966 600 820 548 518 Z"
    fill="#350055"
    fill-opacity="0.92"
  />

  <path
    d="M1188 0 C1494 62 1712 220 1920 418 L1920 0 Z"
    fill="#50007d"
    fill-opacity="0.38"
  />

  <path
    d="M318 208 C538 256 726 324 972 370 C1268 426 1564 398 1920 270 L1920 390 C1582 504 1276 558 976 512 C700 470 498 384 300 312 Z"
    fill="#7a5b74"
    fill-opacity="0.2"
  />
</svg>

